<?xml version="1.0" encoding="UTF-8"?>
<svg id="Layer_2" data-name="Layer 2" xmlns="http://www.w3.org/2000/svg" viewBox="0 0 199.91 289.41">
  <defs>
    <style>
      .cls-1 {
        fill: #d5a850;
      }
    </style>
  </defs>
  <g id="Layer_2-2" data-name="Layer 2">
    <path class="cls-1" d="M145.76,174.7c.54,0,1.1-.67,1.42-.99l9.08-8.78,29.4-28.03,1.83-1.71c1.13.54,2.38.85,3.7.85,4.82,0,8.72-3.99,8.72-8.92s-3.9-8.92-8.72-8.92c-3.6,0-6.69,2.23-8.02,5.42H60.32v-33.92l15.05-14.78,57.67.04c.72-.3,1.05-.68,1.62-1.23l27.1-26.13,26.01-24.95c1.05.46,2.2.71,3.42.71,4.82,0,8.72-3.99,8.72-8.92s-3.9-8.92-8.72-8.92c-3.13,0-5.86,1.69-7.4,4.22l-21.28.08-135.22.13-10.74-4.96C15.12,2.04,12.15,0,8.72,0,3.9,0,0,3.99,0,8.92c0,3.46,1.93,6.46,4.75,7.94v255.69c-2.81,1.48-4.75,4.47-4.75,7.94,0,4.93,3.9,8.92,8.72,8.92,3.78,0,6.99-2.46,8.2-5.9h121.29c.77-.28,1.22-.86,1.81-1.42l26.85-25.38,21.14-19.76,1.29-1.17c.61.14,1.24.22,1.89.22,4.82,0,8.72-3.99,8.72-8.92s-3.9-8.92-8.72-8.92c-3.49,0-6.5,2.11-7.89,5.14h-115.46l-7.53-8.03.02-40.57h85.43ZM64.3,230.7c.32.35.88.51,1.44.51h116.9l-5.03,4.91-41.81,39.5-12.59.05H16.06c-1.01-1.6-2.5-2.85-4.28-3.53l-.02-81.04,18.97-16.4h22.53v43.03c0,.6.36,1.32.71,1.71l10.33,11.26h0ZM11.76,117.03l16.67,14.37h24.83v35.3h-24.42c-.65,0-1.21.54-1.59.89l-11.45,10.02-4.03,3.41v-64h-.01ZM53.86,85.48c-.44.43-.56,1.2-.61,1.84v36.3h-22.05l-19.44-16.8V17.27c1.87-.71,3.43-2.06,4.44-3.79l8.79,4.08h157.01l-17.24,16.55-26.96,25.9-7.23,7.09-5.09.05-53.13.02-18.5,18.31h.01ZM60.33,131.41h119.96l-10.29,9.97-26.49,25.33H60.32v-35.3h.01Z"/>
  </g>
</svg>