<?xml version="1.0" encoding="UTF-8"?>
<svg id="Layer_2" data-name="Layer 2" xmlns="http://www.w3.org/2000/svg" viewBox="0 0 223 293.06">
  <defs>
    <style>
      .cls-1 {
        fill: #d5a850;
      }
    </style>
  </defs>
  <g id="Layer_1-2" data-name="Layer 1">
    <path class="cls-1" d="M185.22,222.98c2.72,0,5.77-.5,7.14-2.58,2.66-4.05,5.83-7.47,10.66-8.67,7-1.74,14.07,1.09,17.69,7.06,3.7,6.1,2.83,14.03-2.07,19.1s-12.7,6.54-19.2,2.88c-1.68.01-4.03-.09-5.48,1.21l-47.64,42.49H32.57c-2.61.01-4.66,1.92-6.64,3.03-4.16,6.42-12.91,7.35-18.3,2.4-5.7-5.23-5.29-13.55.52-18.84,2.21-2.02,4.08-5.83,4.08-9.12l.02-79.13c0-1.9-1.67-4.38-2.96-5.22-2.08-1.35-3.71-2.39-5.33-4.13-4.7-5.05-5.18-12.44-1.6-18.26,1.63-2.66,3.56-4.06,6.3-5.69,1.57-.93,3.61-3.77,3.61-6V30.15c-.53-2.5-2.32-4.82-4.16-6.33-5.84-4.8-6.06-13.14-.54-18.28C13.01.47,21.55,1.35,25.71,7.62c3.14,2.64,6.83,3.97,11.12,4.11l148.96-.07c3.87,0,6.59-3.57,8.67-5.95,6.52-7.45,17.53-7.63,24.1-.44,4.81,5.27,5.19,13.03,1.45,18.86-3.86,6-11.22,8.7-18.13,6.37-2.6-.87-5.45.08-7.78,1.43l-22.06,19.34-29.56,26.1-54.12.08c-4.09,0-7.79,2.65-10.86,4.69-1.37,1.97-2.7,3.13-4.27,4.86-2.57,2.83-5.13,6.6-5.64,10.53-.47,3.58-.07,7.12-.04,10.69l.13,13.14,114.07.03c1.31-.63,3.23-1.49,3.9-2.61,3.43-5.68,9.92-7.82,15.93-5.39s8.87,8.86,7.11,15.18c-1.64,5.9-7.12,9.54-13.2,8.88-4.08-1.03-7.45.51-10.49,3.16l-37.9,32.88-45.77.09-33.94.1.11,24.69c.02,5.45,1.48,10.52,4.93,14.72,2.68,1.47,3.84,3.82,5.75,6.14,1.61,1.95,5.11,3.71,7.92,3.71l99.13.03ZM205.16,24.55c5.82.99,10.79-3.49,10.79-8.93,0-5.7-5.08-10.03-10.82-9.04-4.47.77-7.8,4.72-7.7,9.03s3.08,8.15,7.73,8.94ZM21.03,12.51c-1.23-3.32-4.64-4.74-7.67-3.28-2.81,1.36-3.95,4.62-2.83,7.34s4.36,4.03,7.08,3.13c2.95-.98,4.57-4.09,3.42-7.18ZM55.94,60.87c7.04-4.36,15.96-2.4,20.69,4.32,3.26,2.65,7.07,5.37,11.61,5.37l51.78.08,48.37-42.57c2.15-1.89,2.31-4.82,2.73-7.4-1.52-.93-2.95-1.84-4.69-2.23H29.79c-2.28.58-3.96,2.39-5.23,4.06-2.8,2.4-4.79,5.05-5.63,8.75v79.29s13.48,10.9,13.48,10.9h28.24s0-24.6,0-24.6c-1.21-3.9-3.11-7.3-5.99-10.09-4.2-3.33-6.57-8.22-6.16-13.59.36-4.78,2.88-9.46,7.44-12.28ZM72.45,71.65c-1.18-3.9-4.62-6.33-8.21-6.45-3.88-.13-7.19,2.23-8.59,5.54-1.57,3.72-.39,7.67,2.58,10.33s7.44,2.83,10.69.66,4.74-6.11,3.54-10.07ZM202.08,127.52c1.55-3.56-.17-7.3-3.71-8.27-3.27-.89-6.48.89-7.42,3.88s.56,6.29,3.43,7.5,6.36-.04,7.7-3.11ZM55.52,128.46l-25.4-.34-11.15-8.95.1,23.32c.02,4.8,4.26,8.61,8.54,9.75l27.9-23.77ZM155.39,157.45l28.43-24.47c.68-.84,1.3-2.69.82-3.45-.96-1.55-2.57-1.42-4.24-1.42h-112.99s0,38.86,0,38.86l6.85-.13h70.22s10.91-9.4,10.91-9.4ZM60.67,166.48l-.08-33.53-29.81,25.34.62,8.47,29.26-.28ZM21.53,169.87c3.57-3.19,3.76-8.28,1.09-11.96-2.47-3.41-7.2-4.52-11.03-2.59s-5.96,6.48-4.48,10.68c1.02,2.89,3.33,4.92,5.76,5.67,3.09.96,6.23.37,8.66-1.8ZM19.08,206.42l39.42-33.33h-30.97c-1.82,1.69-3.44,3.01-5.47,4.29-1.67,2.2-3.13,4.97-3.11,7.89l.13,21.15ZM189.53,237.07c1.73-1.54,2.74-3.36,1.99-5.49-.34-.97-2.12-1.92-3.38-1.92l-96.54.02c-5.57.18-10.52,1.84-14.64,5.43-5.11,7.59-15.18,9.3-22.41,3.68-4.31-3.35-6.7-8.38-6.19-13.75s3.38-9.8,8.22-12.47c2.01-2.78,3.99-6.17,3.99-9.81l-.02-22.6-41.37,35.01-.26,9.73.15,32.55c.02,5.03,1.08,9.72,4.36,13.54.96,1.12,1.96,2.74,3.29,3.5,2.24,1.27,5.02,3.26,7.94,3.27l109.06.06,45.79-40.75ZM69.36,219.15c-3.84-3.11-9.31-2.16-12.27,1.26s-2.84,8.58.2,12,8.31,4.07,12.12,1.18c4.7-3.56,4.7-10.59-.05-14.44ZM216.23,225.37c-.73-3.81-3.54-6.52-6.7-7.35-3.71-.98-7.13.31-9.54,3.21-2.82,3.39-2.65,8.17.11,11.62,2.52,3.14,7.01,4.28,10.92,2.5,3.6-1.64,6.05-5.57,5.21-9.97ZM14.26,275.33c-3.37.93-4.76,4.36-3.84,7.11,1.03,3.09,4.03,4.56,6.75,3.88,3.3-.82,5-4.1,4.2-7.04s-3.88-4.84-7.11-3.94Z"/>
  </g>
</svg>