<?xml version="1.0" encoding="UTF-8"?>
<svg id="Layer_2" data-name="Layer 2" xmlns="http://www.w3.org/2000/svg" viewBox="0 0 887.33 293.06">
  <defs>
    <style>
      .cls-1 {
        fill: #d5a850;
      }
    </style>
  </defs>
  <g id="Layer_1-2" data-name="Layer 1">
    <g>
      <polygon class="cls-1" points="886.97 171.47 283.06 171.47 283.05 167 887 167.01 886.97 171.47"/>
      <path class="cls-1" d="M610.04,140.08l-10.67.45-23.84-25.15-25.57.09.14,24.72-8.14.15v-60.69s45.31.21,45.31.21c4.96.02,9.99,2.43,14.05,4.87,6.7,6.29,7.7,16.98,1.02,23.66-4.24,4.24-10.28,5.46-16.23,6.74l23.94,24.95ZM593.64,106.5c4.35-4.06,5.67-7.86,4.18-12.9-1.11-3.73-5.77-6.92-10.71-6.93l-37.12-.09.04,22.22,33.62.11,10-2.42Z"/>
      <path class="cls-1" d="M703.25,140.21c-3.35.84-6.63-.07-8.51-3.02l-51.75-47.54-.05,50.49h-7.97s-.04-60.41-.04-60.41l8.49-.05,52.17,47.7.13-47.69,7.56.04-.03,60.49Z"/>
      <polygon class="cls-1" points="500.74 111.44 463.38 111.42 463.29 133.94 515.09 133.93 515.32 140.31 455.54 140.39 455.52 79.71 515.29 79.7 515.3 86.62 463.34 86.68 463.32 104.83 500.69 104.78 500.74 111.44"/>
      <polygon class="cls-1" points="328.86 111.41 291.58 111.44 291.63 133.9 342.62 133.89 342.66 140.33 283.92 140.36 283.93 79.7 342.65 79.68 342.69 86.65 291.59 86.57 291.62 104.82 329.3 104.83 328.86 111.41"/>
      <path class="cls-1" d="M785.31,122.32l-40.05-.03-10.33,18.02-9-.12,35.23-60.07,8.24-.4,35.27,60.64h-9.06s-10.31-18.05-10.31-18.05ZM781.22,115.41l-15.95-27.86-16.13,28.01,32.08-.15Z"/>
      <polygon class="cls-1" points="400.35 140.26 392.42 140.35 392.48 86.68 361.92 86.66 361.96 79.71 434.11 79.72 433.93 86.61 400.36 86.62 400.35 140.26"/>
      <polygon class="cls-1" points="887.21 133.9 887.33 140.36 828.21 140.37 828.23 79.74 836.11 79.71 836.08 133.92 887.21 133.9"/>
      <path class="cls-1" d="M497.24,218.94c-2.06.5-4.27-.08-5.49-1.43l-15.16-16.73-.46,18.24-4.14.05.09-23.51c.54-1.3,4.2-1.03,5.15-.02l15.44,16.51.51-17.25,3.98.02.09,24.1Z"/>
      <path class="cls-1" d="M446.58,215.81c-5.18,4.75-12.83,4.84-18.62,2.32-4.41-1.92-7-6.13-7.28-10.28-.3-4.43,1.98-8.88,6.13-11.28,6.18-3.58,14.45-3.16,19.85,1.91,4.56,4.27,4.85,12.8-.08,17.33ZM442.78,200.84c-4.45-3.44-10.68-3.25-14.71.05-2.99,2.45-3.25,6.86-1.62,10.25,1.34,2.77,5.32,4.63,9.18,4.64s7.55-1.89,9.04-4.81,1.36-7.61-1.89-10.13Z"/>
      <path class="cls-1" d="M524.84,212.17c5.05,5.81,17.49,3.93,16.9-.33-.18-1.28-2.34-2.14-3.89-2.17l-3.73-.07c-.87-.02-.26-2.95.1-3.78l11.38.11-.11,10.61c-5.39,3.36-12.14,4.22-18.39,2.32-4.84-1.47-7.88-5.89-8.44-10.08-.68-5.13,1.73-9.33,6.13-12.26,6.03-4.01,15.55-2.56,20.2,2.37-.84,6.87-8.94-5.31-18.59,1.52-3.46,2.45-4.44,8.47-1.58,11.76Z"/>
      <polygon class="cls-1" points="586.34 208.63 570.64 208.57 570.61 215.32 588.76 215.22 588.52 219.27 566.22 219.3 566.21 194.7 588.28 194.55 588.32 198.74 570.81 198.88 570.59 204.58 586.42 204.61 586.34 208.63"/>
      <path class="cls-1" d="M630.08,195.58c.52-1.03,4.42-1.27,5.3-.91l-12.2,24.33c-.98.44-4.22.22-4.71-.74l-11.82-23.34,5.02.08,9.24,18.66,9.17-18.09Z"/>
      <polygon class="cls-1" points="693.4 218.73 688.92 219.1 688.89 198.81 678.3 198.63 678.53 194.64 704.15 194.62 703.94 198.65 693.29 198.63 693.4 218.73"/>
      <path class="cls-1" d="M747.4,194.75l-11.62,14.89.04,9.37-4.7.03.07-9.32-11.12-14.65c1.11-.59,4.72-.71,5.52.35l7.8,10.26,8.05-10.01c.97-1.2,4.52-1.35,5.96-.91Z"/>
      <path class="cls-1" d="M405,215.21l.15,4.03-20.69.13v-24.34c.62-.12,3.75-.16,4.44-.06l-.05,20.31,16.15-.07Z"/>
      <polygon class="cls-1" points="659.24 219.09 654.72 219.21 654.77 194.63 659.17 194.59 659.24 219.09"/>
      <path class="cls-1" d="M185.22,222.98c2.72,0,5.77-.5,7.14-2.58,2.66-4.05,5.83-7.47,10.66-8.67,7-1.74,14.07,1.09,17.69,7.06,3.7,6.1,2.83,14.03-2.07,19.1s-12.7,6.54-19.2,2.88c-1.68.01-4.03-.09-5.48,1.21l-47.64,42.49H32.57c-2.61.01-4.66,1.92-6.64,3.03-4.16,6.42-12.91,7.35-18.3,2.4-5.7-5.23-5.29-13.55.52-18.84,2.21-2.02,4.08-5.83,4.08-9.12l.02-79.13c0-1.9-1.67-4.38-2.96-5.22-2.08-1.35-3.71-2.39-5.33-4.13-4.7-5.05-5.18-12.44-1.6-18.26,1.63-2.66,3.56-4.06,6.3-5.69,1.57-.93,3.61-3.77,3.61-6V30.15c-.53-2.5-2.32-4.82-4.16-6.33-5.84-4.8-6.06-13.14-.54-18.28C13.01.47,21.55,1.35,25.71,7.62c3.14,2.64,6.83,3.97,11.12,4.11l148.96-.07c3.87,0,6.59-3.57,8.67-5.95,6.52-7.45,17.53-7.63,24.1-.44,4.81,5.27,5.19,13.03,1.45,18.86-3.86,6-11.22,8.7-18.13,6.37-2.6-.87-5.45.08-7.78,1.43l-22.06,19.34-29.56,26.1-54.12.08c-4.09,0-7.79,2.65-10.86,4.69-1.37,1.97-2.7,3.13-4.27,4.86-2.57,2.83-5.13,6.6-5.64,10.53-.47,3.58-.07,7.12-.04,10.69l.13,13.14,114.07.03c1.31-.63,3.23-1.49,3.9-2.61,3.43-5.68,9.92-7.82,15.93-5.39s8.87,8.86,7.11,15.18c-1.64,5.9-7.12,9.54-13.2,8.88-4.08-1.03-7.45.51-10.49,3.16l-37.9,32.88-45.77.09-33.94.1.11,24.69c.02,5.45,1.48,10.52,4.93,14.72,2.68,1.47,3.84,3.82,5.75,6.14,1.61,1.95,5.11,3.71,7.92,3.71l99.13.03ZM205.16,24.55c5.82.99,10.79-3.49,10.79-8.93,0-5.7-5.08-10.03-10.82-9.04-4.47.77-7.8,4.72-7.7,9.03s3.08,8.15,7.73,8.94ZM21.03,12.51c-1.23-3.32-4.64-4.74-7.67-3.28-2.81,1.36-3.95,4.62-2.83,7.34s4.36,4.03,7.08,3.13c2.95-.98,4.57-4.09,3.42-7.18ZM55.94,60.87c7.04-4.36,15.96-2.4,20.69,4.32,3.26,2.65,7.07,5.37,11.61,5.37l51.78.08,48.37-42.57c2.15-1.89,2.31-4.82,2.73-7.4-1.52-.93-2.95-1.84-4.69-2.23H29.79c-2.28.58-3.96,2.39-5.23,4.06-2.8,2.4-4.79,5.05-5.63,8.75v79.29s13.48,10.9,13.48,10.9h28.24s0-24.6,0-24.6c-1.21-3.9-3.11-7.3-5.99-10.09-4.2-3.33-6.57-8.22-6.16-13.59.36-4.78,2.88-9.46,7.44-12.28ZM72.45,71.65c-1.18-3.9-4.62-6.33-8.21-6.45-3.88-.13-7.19,2.23-8.59,5.54-1.57,3.72-.39,7.67,2.58,10.33s7.44,2.83,10.69.66,4.74-6.11,3.54-10.07ZM202.08,127.52c1.55-3.56-.17-7.3-3.71-8.27-3.27-.89-6.48.89-7.42,3.88s.56,6.29,3.43,7.5,6.36-.04,7.7-3.11ZM55.52,128.46l-25.4-.34-11.15-8.95.1,23.32c.02,4.8,4.26,8.61,8.54,9.75l27.9-23.77ZM155.39,157.45l28.43-24.47c.68-.84,1.3-2.69.82-3.45-.96-1.55-2.57-1.42-4.24-1.42h-112.99s0,38.86,0,38.86l6.85-.13h70.22s10.91-9.4,10.91-9.4ZM60.67,166.48l-.08-33.53-29.81,25.34.62,8.47,29.26-.28ZM21.53,169.87c3.57-3.19,3.76-8.28,1.09-11.96-2.47-3.41-7.2-4.52-11.03-2.59s-5.96,6.48-4.48,10.68c1.02,2.89,3.33,4.92,5.76,5.67,3.09.96,6.23.37,8.66-1.8ZM19.08,206.42l39.42-33.33h-30.97c-1.82,1.69-3.44,3.01-5.47,4.29-1.67,2.2-3.13,4.97-3.11,7.89l.13,21.15ZM189.53,237.07c1.73-1.54,2.74-3.36,1.99-5.49-.34-.97-2.12-1.92-3.38-1.92l-96.54.02c-5.57.18-10.52,1.84-14.64,5.43-5.11,7.59-15.18,9.3-22.41,3.68-4.31-3.35-6.7-8.38-6.19-13.75s3.38-9.8,8.22-12.47c2.01-2.78,3.99-6.17,3.99-9.81l-.02-22.6-41.37,35.01-.26,9.73.15,32.55c.02,5.03,1.08,9.72,4.36,13.54.96,1.12,1.96,2.74,3.29,3.5,2.24,1.27,5.02,3.26,7.94,3.27l109.06.06,45.79-40.75ZM69.36,219.15c-3.84-3.11-9.31-2.16-12.27,1.26s-2.84,8.58.2,12,8.31,4.07,12.12,1.18c4.7-3.56,4.7-10.59-.05-14.44ZM216.23,225.37c-.73-3.81-3.54-6.52-6.7-7.35-3.71-.98-7.13.31-9.54,3.21-2.82,3.39-2.65,8.17.11,11.62,2.52,3.14,7.01,4.28,10.92,2.5,3.6-1.64,6.05-5.57,5.21-9.97ZM14.26,275.33c-3.37.93-4.76,4.36-3.84,7.11,1.03,3.09,4.03,4.56,6.75,3.88,3.3-.82,5-4.1,4.2-7.04s-3.88-4.84-7.11-3.94Z"/>
    </g>
  </g>
</svg>