<?xml version="1.0" encoding="UTF-8"?>
<svg id="Layer_2" data-name="Layer 2" xmlns="http://www.w3.org/2000/svg" viewBox="0 0 880.11 289.41">
  <defs>
    <style>
      .cls-1 {
        fill: #d5a850;
      }
    </style>
  </defs>
  <g id="Layer_1-2" data-name="Layer 1">
    <g>
      <polygon class="cls-1" points="879.75 170.37 275.84 170.37 275.83 165.9 879.78 165.91 879.75 170.37"/>
      <path class="cls-1" d="M602.81,138.98l-10.67.45-23.84-25.15-25.57.09.14,24.72-8.14.15v-60.69s45.31.21,45.31.21c4.96.02,9.99,2.43,14.05,4.87,6.7,6.29,7.7,16.98,1.02,23.66-4.24,4.24-10.28,5.46-16.23,6.74l23.94,24.95ZM586.42,105.4c4.35-4.06,5.67-7.86,4.18-12.9-1.11-3.73-5.77-6.92-10.71-6.93l-37.12-.09.04,22.22,33.62.11,10-2.42Z"/>
      <path class="cls-1" d="M696.03,139.11c-3.35.84-6.63-.07-8.51-3.02l-51.75-47.54-.05,50.49h-7.97s-.04-60.41-.04-60.41l8.49-.05,52.17,47.7.13-47.69,7.56.04-.03,60.49Z"/>
      <polygon class="cls-1" points="493.52 110.34 456.15 110.32 456.07 132.84 507.87 132.83 508.1 139.21 448.32 139.3 448.3 78.61 508.07 78.6 508.08 85.52 456.12 85.58 456.09 103.73 493.47 103.68 493.52 110.34"/>
      <polygon class="cls-1" points="321.64 110.31 284.36 110.34 284.4 132.8 335.4 132.79 335.43 139.23 276.7 139.26 276.71 78.61 335.43 78.58 335.47 85.55 284.36 85.47 284.39 103.73 322.08 103.73 321.64 110.31"/>
      <path class="cls-1" d="M778.08,121.23l-40.05-.03-10.33,18.02-9-.12,35.23-60.07,8.24-.4,35.27,60.64h-9.06s-10.31-18.05-10.31-18.05ZM773.99,114.31l-15.95-27.86-16.13,28.01,32.08-.15Z"/>
      <polygon class="cls-1" points="393.13 139.16 385.19 139.26 385.26 85.58 354.7 85.56 354.74 78.61 426.89 78.62 426.71 85.52 393.13 85.52 393.13 139.16"/>
      <polygon class="cls-1" points="879.99 132.8 880.11 139.26 820.99 139.28 821.01 78.64 828.89 78.61 828.86 132.82 879.99 132.8"/>
      <path class="cls-1" d="M490.02,217.84c-2.06.5-4.27-.08-5.49-1.43l-15.16-16.73-.46,18.24-4.14.05.09-23.51c.54-1.3,4.2-1.03,5.15-.02l15.44,16.51.51-17.25,3.98.02.09,24.1Z"/>
      <path class="cls-1" d="M439.36,214.71c-5.18,4.75-12.83,4.84-18.62,2.32-4.41-1.92-7-6.13-7.28-10.28-.3-4.43,1.98-8.88,6.13-11.28,6.18-3.58,14.45-3.16,19.85,1.91,4.56,4.27,4.85,12.8-.08,17.33ZM435.55,199.74c-4.45-3.44-10.68-3.25-14.71.05-2.99,2.45-3.25,6.86-1.62,10.25,1.34,2.77,5.32,4.63,9.18,4.64s7.55-1.89,9.04-4.81,1.36-7.61-1.89-10.13Z"/>
      <path class="cls-1" d="M517.62,211.07c5.05,5.81,17.49,3.93,16.9-.33-.18-1.28-2.34-2.14-3.89-2.17l-3.73-.07c-.87-.02-.26-2.95.1-3.78l11.38.11-.11,10.61c-5.39,3.36-12.14,4.22-18.39,2.32-4.84-1.47-7.88-5.89-8.44-10.08-.68-5.13,1.73-9.33,6.13-12.26,6.03-4.01,15.55-2.56,20.2,2.37-.84,6.87-8.94-5.31-18.59,1.52-3.46,2.45-4.44,8.47-1.58,11.76Z"/>
      <polygon class="cls-1" points="579.12 207.53 563.42 207.47 563.39 214.22 581.53 214.12 581.29 218.17 558.99 218.2 558.99 193.6 581.05 193.45 581.1 197.65 563.59 197.78 563.37 203.48 579.19 203.51 579.12 207.53"/>
      <path class="cls-1" d="M622.86,194.48c.52-1.03,4.42-1.27,5.3-.91l-12.2,24.33c-.98.44-4.22.22-4.71-.74l-11.82-23.34,5.02.08,9.24,18.66,9.17-18.09Z"/>
      <polygon class="cls-1" points="686.18 217.64 681.7 218 681.67 197.71 671.08 197.53 671.3 193.54 696.92 193.52 696.71 197.55 686.06 197.53 686.18 217.64"/>
      <path class="cls-1" d="M740.17,193.66l-11.62,14.89.04,9.37-4.7.03.07-9.32-11.12-14.65c1.11-.59,4.72-.71,5.52.35l7.8,10.26,8.05-10.01c.97-1.2,4.52-1.35,5.96-.91Z"/>
      <path class="cls-1" d="M397.78,214.11l.15,4.03-20.69.13v-24.34c.62-.12,3.75-.16,4.44-.06l-.05,20.31,16.15-.07Z"/>
      <polygon class="cls-1" points="652.01 217.99 647.5 218.12 647.55 193.53 651.95 193.49 652.01 217.99"/>
      <path class="cls-1" d="M145.76,174.7c.54,0,1.1-.67,1.42-.99l9.08-8.78,29.4-28.03,1.83-1.71c1.13.54,2.38.85,3.7.85,4.82,0,8.72-3.99,8.72-8.92s-3.9-8.92-8.72-8.92c-3.6,0-6.69,2.23-8.02,5.42H60.32s0-33.92,0-33.92l15.05-14.78,57.67.04c.72-.3,1.05-.68,1.62-1.23l27.1-26.13,26.01-24.95c1.05.46,2.2.71,3.42.71,4.82,0,8.72-3.99,8.72-8.92s-3.9-8.92-8.72-8.92c-3.13,0-5.86,1.69-7.4,4.22l-21.28.08-135.22.13-10.74-4.96C15.12,2.04,12.15,0,8.72,0,3.9,0,0,3.99,0,8.92c0,3.46,1.93,6.46,4.75,7.94v255.69c-2.81,1.48-4.75,4.47-4.75,7.94,0,4.93,3.9,8.92,8.72,8.92,3.78,0,6.99-2.46,8.2-5.9h121.29c.77-.28,1.22-.86,1.81-1.42l26.85-25.38,21.14-19.76,1.29-1.17c.61.14,1.24.22,1.89.22,4.82,0,8.72-3.99,8.72-8.92s-3.9-8.92-8.72-8.92c-3.49,0-6.5,2.11-7.89,5.14h-115.46s-7.53-8.03-7.53-8.03l.02-40.57h85.42ZM64.3,230.7c.32.35.88.51,1.44.51h83.46s33.44,0,33.44,0l-5.03,4.91-41.81,39.5-12.59.05H16.06c-1.01-1.6-2.5-2.85-4.28-3.53l-.02-81.04,18.97-16.4h22.53s0,43.03,0,43.03c0,.6.36,1.32.71,1.71l10.33,11.26ZM11.76,117.03l16.67,14.37h24.83s0,35.3,0,35.3h-24.42c-.65,0-1.21.54-1.59.89l-11.45,10.02-4.03,3.41v-64ZM53.86,85.48c-.44.43-.56,1.2-.61,1.84v36.3s-22.05,0-22.05,0l-19.44-16.8V17.27c1.87-.71,3.43-2.06,4.44-3.79l8.79,4.08h157.01s-17.24,16.55-17.24,16.55l-26.96,25.9-7.23,7.09-5.09.05-53.13.02-18.5,18.31ZM60.33,131.41h119.96s-10.29,9.97-10.29,9.97l-26.49,25.33H60.32s0-35.3,0-35.3Z"/>
    </g>
  </g>
</svg>